<?xml version="1.0" encoding="UTF-8"?>
<svg width="128" height="128" viewBox="0 0 128 128" fill="none" xmlns="http://www.w3.org/2000/svg">
  <rect width="128" height="128" rx="24" fill="#4F46E5"/>
  <path d="M64 32C45.2 32 30 47.2 30 66C30 84.8 45.2 100 64 100C82.8 100 98 84.8 98 66C98 47.2 82.8 32 64 32ZM64 92C49.6 92 38 80.4 38 66C38 51.6 49.6 40 64 40C78.4 40 90 51.6 90 66C90 80.4 78.4 92 64 92Z" fill="white"/>
  <path d="M64 44C52.8 44 44 52.8 44 64C44 75.2 52.8 84 64 84C75.2 84 84 75.2 84 64C84 52.8 75.2 44 64 44ZM64 76C57.2 76 52 70.8 52 64C52 57.2 57.2 52 64 52C70.8 52 76 57.2 76 64C76 70.8 70.8 76 64 76Z" fill="white"/>
</svg>
